<svg width="12" height="14" viewBox="0 0 12 14" fill="none" xmlns="http://www.w3.org/2000/svg">
<path d="M8.19332 4.13999L6.66666 2.60666V10.3333C6.66666 10.5101 6.59642 10.6797 6.47139 10.8047C6.34637 10.9298 6.1768 11 5.99999 11C5.82318 11 5.65361 10.9298 5.52858 10.8047C5.40356 10.6797 5.33332 10.5101 5.33332 10.3333V2.60666L3.80666 4.13999C3.68112 4.26552 3.51086 4.33605 3.33332 4.33605C3.15579 4.33605 2.98553 4.26552 2.85999 4.13999C2.73445 4.01445 2.66393 3.84419 2.66393 3.66666C2.66393 3.48912 2.73445 3.31886 2.85999 3.19332L5.52666 0.526657C5.59006 0.465963 5.66482 0.418386 5.74666 0.386656C5.82646 0.351386 5.91274 0.333168 5.99999 0.333168C6.08724 0.333168 6.17352 0.351386 6.25332 0.386656C6.33516 0.418386 6.40992 0.465963 6.47332 0.526657L9.13999 3.19332C9.26552 3.31886 9.33605 3.48912 9.33605 3.66666C9.33605 3.84419 9.26552 4.01445 9.13999 4.13999C9.07783 4.20215 9.00404 4.25146 8.92282 4.2851C8.84161 4.31874 8.75456 4.33605 8.66666 4.33605C8.48912 4.33605 8.31886 4.26552 8.19332 4.13999ZM10.6667 13.6667H1.33332C1.15651 13.6667 0.986943 13.5964 0.861919 13.4714C0.736895 13.3464 0.666656 13.1768 0.666656 13C0.666656 12.8232 0.736895 12.6536 0.861919 12.5286C0.986943 12.4036 1.15651 12.3333 1.33332 12.3333H10.6667C10.8435 12.3333 11.013 12.4036 11.1381 12.5286C11.2631 12.6536 11.3333 12.8232 11.3333 13C11.3333 13.1768 11.2631 13.3464 11.1381 13.4714C11.013 13.5964 10.8435 13.6667 10.6667 13.6667Z" fill="white"/>
</svg>
